<svg width="42" height="43" viewBox="0 0 42 43" fill="none" xmlns="http://www.w3.org/2000/svg">
<path d="M42 21.0574L38.4054 16.3697L39.2095 10.5455L33.723 8.3674L31.5473 2.87473L25.7297 3.67969L21 0.0336914L16.3176 3.63234L10.5 2.82738L8.32432 8.32005L2.83784 10.4982L3.64189 16.3223L0 21.0574L3.59459 25.7451L2.79054 31.5692L8.27703 33.7473L10.4527 39.24L16.2703 38.435L20.9527 42.0337L25.6351 38.435L31.4527 39.24L33.6284 33.7473L39.1149 31.5219L38.3108 25.6977L42 21.0574ZM19.2973 27.8759L12.2973 22.0991L13.8108 20.2524L19.0135 24.514L27.9054 14.2389L29.7027 15.8014L19.2973 27.8759Z" fill="#1DACD6"/>
</svg>
