<svg width="23" height="23" viewBox="0 0 23 23" fill="none" xmlns="http://www.w3.org/2000/svg">
<path d="M11.5006 0.71928C9.91466 0.71928 8.40627 1.06071 7.04913 1.67667C6.86335 1.76102 6.78493 1.98288 6.87646 2.16522L7.5187 3.45182C7.60493 3.6246 7.81229 3.69836 7.98828 3.61886C9.06104 3.13987 10.2484 2.87623 11.5006 2.87623C16.2683 2.87623 20.1249 6.73282 20.1249 11.5005C20.1249 13.2941 19.5729 14.9514 18.6369 16.3317L17.504 15.1982C17.4266 15.1206 17.318 15.0827 17.2092 15.0949C17.0276 15.116 16.8907 15.2701 16.8912 15.4529V19.406C16.8905 19.6045 17.0507 19.766 17.2492 19.7668H21.2016C21.5245 19.7695 21.6866 19.3778 21.4564 19.1513L20.1825 17.8773C21.4968 16.0905 22.2818 13.887 22.2818 11.5005C22.2818 5.55043 17.4507 0.719238 11.5006 0.719238V0.71928ZM1.79608 3.2342C1.47648 3.23432 1.316 3.62027 1.54129 3.84697L2.81595 5.12163C1.50143 6.90855 0.71936 9.11365 0.71936 11.5005C0.71936 17.4506 5.55055 22.2818 11.5006 22.2818C13.0865 22.2818 14.5949 21.9375 15.9521 21.3216C16.1376 21.2369 16.2157 21.0152 16.124 20.8331L15.4797 19.5465C15.3936 19.3752 15.1882 19.3017 15.0129 19.3794C13.9402 19.8584 12.7528 20.1248 11.5006 20.1248C6.7329 20.1248 2.87631 16.2682 2.87631 11.5005C2.87631 9.70764 3.4251 8.04826 4.36013 6.66792L5.49722 7.80218C5.72391 8.02747 6.10986 7.867 6.10998 7.54743V3.59499C6.1107 3.39542 5.94877 3.23344 5.7492 3.2342H1.79608ZM12.2011 5.39044C12.0839 5.39587 11.9767 5.45902 11.914 5.55819L7.60363 12.3863C7.45253 12.6249 7.62304 12.9366 7.90545 12.9381H10.7524L10.4232 17.2225C10.3968 17.5934 10.8821 17.7553 11.0837 17.4429L15.3976 10.614C15.5495 10.3741 15.3763 10.061 15.0922 10.0623H12.246L12.5773 5.77788C12.5945 5.56167 12.4177 5.37926 12.2011 5.39044Z" fill="#1DACD6"/>
</svg>
