<svg width="23" height="18" viewBox="0 0 23 18" fill="none" xmlns="http://www.w3.org/2000/svg">
<path d="M21.85 2.25H1.15C0.514984 2.25 0 2.75379 0 3.375V14.625C0 15.2462 0.514984 15.75 1.15 15.75H21.85C22.485 15.75 23 15.2462 23 14.625V3.375C23 2.75379 22.485 2.25 21.85 2.25ZM1.725 14.0625V11.8125C2.99539 11.8125 4.025 12.8197 4.025 14.0625H1.725ZM1.725 6.1875V3.9375H4.025C4.025 5.18027 2.99539 6.1875 1.725 6.1875ZM11.5 12.375C9.91192 12.375 8.625 10.8636 8.625 9C8.625 7.13602 9.91228 5.625 11.5 5.625C13.0877 5.625 14.375 7.13602 14.375 9C14.375 10.8643 13.0874 12.375 11.5 12.375ZM21.275 14.0625H18.975C18.975 12.8197 20.0046 11.8125 21.275 11.8125V14.0625ZM21.275 6.1875C20.0046 6.1875 18.975 5.18027 18.975 3.9375H21.275V6.1875Z" fill="#1DACD6"/>
</svg>
