<svg width="41" height="41" viewBox="0 0 41 41" fill="none" xmlns="http://www.w3.org/2000/svg">
<circle cx="20.7778" cy="20.5" r="20" fill="#C71DD6"/>
<path d="M20.7801 28.8709C18.5023 28.8709 18.2338 28.8589 17.3449 28.82C16.6517 28.7972 15.9675 28.6563 15.3218 28.4033C14.7692 28.1882 14.2673 27.8606 13.8481 27.4412C13.4289 27.0219 13.1014 26.5199 12.8866 25.9672C12.6434 25.3191 12.5122 24.6343 12.4986 23.9422C12.4468 23.0552 12.4468 22.7644 12.4468 20.5042C12.4468 18.22 12.4588 17.9533 12.4986 17.069C12.5125 16.3779 12.6436 15.6941 12.8866 15.0468C13.1012 14.4934 13.4288 13.9909 13.8486 13.5713C14.2684 13.1516 14.7711 12.8242 15.3246 12.6098C15.9714 12.3655 16.6554 12.234 17.3468 12.2209C18.231 12.1709 18.5218 12.1709 20.7801 12.1709C23.0764 12.1709 23.3403 12.1829 24.2153 12.2209C24.9079 12.2339 25.5949 12.3653 26.2431 12.6098C26.7964 12.8244 27.299 13.152 27.7187 13.5716C28.1384 13.9912 28.4662 14.4936 28.681 15.0468C28.9283 15.7042 29.0607 16.3987 29.0709 17.0996C29.1227 17.9866 29.1227 18.2765 29.1227 20.5357C29.1227 22.795 29.1097 23.0913 29.0709 23.9681C29.057 24.6609 28.9255 25.3463 28.682 25.995C28.4666 26.548 28.1385 27.0503 27.7187 27.4698C27.2988 27.8894 26.7963 28.217 26.2431 28.432C25.5949 28.6746 24.9107 28.8061 24.219 28.82C23.3347 28.8709 23.0449 28.8709 20.7801 28.8709ZM20.7486 13.6366C18.4838 13.6366 18.2486 13.6478 17.3644 13.6876C16.8363 13.6945 16.3133 13.7919 15.8181 13.9755C15.4569 14.114 15.1287 14.3266 14.8548 14.5996C14.5808 14.8726 14.367 15.2 14.2273 15.5607C14.0421 16.0607 13.9449 16.5894 13.9394 17.1227C13.8903 18.02 13.8903 18.2552 13.8903 20.5042C13.8903 22.7265 13.8986 22.9959 13.9394 23.8876C13.9477 24.4153 14.0449 24.9385 14.2273 25.4339C14.5107 26.1626 15.0884 26.7385 15.819 27.0181C16.3135 27.2029 16.8365 27.3004 17.3644 27.3061C18.2607 27.3579 18.4968 27.3579 20.7486 27.3579C23.0199 27.3579 23.2551 27.3468 24.132 27.3061C24.6601 27.2997 25.1832 27.2023 25.6783 27.0181C26.0375 26.8786 26.3638 26.6659 26.6364 26.3935C26.909 26.121 27.1219 25.7949 27.2616 25.4357C27.4468 24.9357 27.544 24.4061 27.5496 23.8727H27.5597C27.5996 22.9876 27.5996 22.7515 27.5996 20.4894C27.5996 18.2274 27.5894 17.9894 27.5496 17.1052C27.5412 16.5778 27.4438 16.0556 27.2616 15.5607C27.1222 15.201 26.9094 14.8743 26.6368 14.6014C26.3642 14.3285 26.0378 14.1153 25.6783 13.9755C25.1829 13.7903 24.6597 13.694 24.132 13.6876C23.2366 13.6366 23.0023 13.6366 20.7486 13.6366ZM20.7801 24.7811C19.9334 24.7816 19.1056 24.5311 18.4013 24.0611C17.697 23.5911 17.1479 22.9228 16.8235 22.1408C16.4991 21.3587 16.4138 20.498 16.5786 19.6675C16.7434 18.837 17.1508 18.074 17.7492 17.475C18.3477 16.8761 19.1103 16.468 19.9406 16.3025C20.771 16.137 21.6318 16.2215 22.4141 16.5453C23.1965 16.869 23.8653 17.4175 24.3358 18.1214C24.8064 18.8253 25.0577 19.6529 25.0579 20.4996C25.0564 21.634 24.6054 22.7216 23.8036 23.5241C23.0017 24.3266 21.9145 24.7786 20.7801 24.7811ZM20.7801 17.72C20.2307 17.72 19.6937 17.8829 19.2369 18.1881C18.7801 18.4933 18.424 18.9272 18.2138 19.4347C18.0035 19.9423 17.9485 20.5008 18.0557 21.0397C18.1629 21.5785 18.4274 22.0735 18.8159 22.4619C19.2044 22.8504 19.6994 23.115 20.2382 23.2222C20.777 23.3293 21.3355 23.2743 21.8431 23.0641C22.3507 22.8538 22.7845 22.4978 23.0897 22.041C23.395 21.5842 23.5579 21.0471 23.5579 20.4978C23.5562 19.7616 23.263 19.056 22.7424 18.5355C22.2218 18.0149 21.5163 17.7217 20.7801 17.72ZM25.2246 17.0598C25.0935 17.0593 24.9638 17.033 24.8429 16.9824C24.7219 16.9318 24.6122 16.8578 24.5198 16.7648C24.3333 16.5769 24.2291 16.3227 24.2301 16.0579C24.2311 15.7932 24.3372 15.5397 24.5251 15.3532C24.713 15.1667 24.9672 15.0625 25.232 15.0635C25.4967 15.0645 25.7502 15.1706 25.9367 15.3585C26.1232 15.5463 26.2274 15.8006 26.2264 16.0653C26.2254 16.3301 26.1193 16.5836 25.9314 16.7701C25.7436 16.9566 25.4893 17.0608 25.2246 17.0598Z" fill="white"/>
</svg>
