<svg width="40" height="40" viewBox="0 0 40 40" fill="none" xmlns="http://www.w3.org/2000/svg">
<path d="M12.7476 17.3083C14.1152 15.9372 14.1152 13.7079 12.7465 12.3369L7.94225 7.53389C7.18693 6.77858 6.13748 6.40319 5.07779 6.50733C4.05928 6.60576 3.15287 7.14022 2.591 7.97217C-1.47283 13.9975 -0.686581 22.1056 4.45982 27.252L12.7465 35.5386C15.6887 38.4821 19.5992 39.9984 23.5359 39.9984C26.4839 39.9984 29.4468 39.147 32.0263 37.4075C32.8594 36.8444 33.3939 35.938 33.4911 34.9195C33.5941 33.854 33.2199 32.8104 32.4646 32.0562L27.6615 27.2508C26.2917 25.8844 24.0624 25.8833 22.6902 27.252L21.0331 28.9091C20.5754 29.368 19.8326 29.368 19.3748 28.9091L11.0894 20.6236C10.6327 20.1658 10.6327 19.4231 11.0894 18.9653L12.7476 17.3083Z" fill="#1DACD6"/>
<path d="M36.4844 0.000976562H22.4219C20.4833 0.000976562 18.9062 1.57801 18.9062 3.5166V12.8916C18.9062 14.4194 19.8859 15.7228 21.25 16.207V19.9228C21.25 20.3966 21.5349 20.8246 21.9733 21.0054C22.4052 21.1856 22.9122 21.0896 23.2505 20.7513L27.5946 16.4072H36.4844C38.423 16.4072 40 14.8302 40 12.8916V3.5166C40 1.57793 38.423 0.000976562 36.4844 0.000976562ZM24.7656 9.37597C24.1184 9.37597 23.5938 8.85128 23.5938 8.20409C23.5938 7.55675 24.1184 7.03222 24.7656 7.03222C25.4128 7.03222 25.9375 7.55675 25.9375 8.20409C25.9375 8.8512 25.4128 9.37597 24.7656 9.37597ZM29.4531 9.37597C28.8059 9.37597 28.2812 8.85128 28.2812 8.20409C28.2812 7.55675 28.8059 7.03222 29.4531 7.03222C30.1003 7.03222 30.625 7.55675 30.625 8.20409C30.625 8.8512 30.1003 9.37597 29.4531 9.37597ZM34.1406 9.37597C33.4934 9.37597 32.9688 8.85128 32.9688 8.20409C32.9688 7.55675 33.4934 7.03222 34.1406 7.03222C34.7878 7.03222 35.3125 7.55675 35.3125 8.20409C35.3125 8.8512 34.7878 9.37597 34.1406 9.37597Z" fill="#1DACD6"/>
</svg>
