<svg width="23" height="23" viewBox="0 0 23 23" fill="none" xmlns="http://www.w3.org/2000/svg">
<path d="M12.6501 8.0502C15.4849 8.0502 17.0926 9.8603 17.326 12.0453H17.3973C19.2212 12.0453 20.7001 13.4678 20.7001 15.2227C20.7001 16.9776 19.2212 18.4002 17.3973 18.4002H7.90294C6.07904 18.4002 4.60014 16.9776 4.60014 15.2227C4.60014 13.5322 5.97094 12.1511 7.70169 12.051L7.97424 12.0453C8.20999 9.84535 9.81539 8.0502 12.6501 8.0502ZM6.71959 3.4502C7.48709 3.49182 8.23386 3.71447 8.89884 4.09995C9.45402 4.41941 9.94078 4.84517 10.3313 5.35289C10.7218 5.86061 11.0084 6.44033 11.1747 7.0589C9.19209 7.4959 7.76724 8.8299 7.18534 10.671L7.11174 10.9252L7.05884 11.1402L6.86909 11.1747C5.86679 11.3805 4.97016 11.9356 4.33909 12.741C3.57048 12.3738 2.91151 11.8115 2.42779 11.1103C2.36516 11.0191 2.3243 10.9147 2.30834 10.8052C2.29239 10.6957 2.30176 10.584 2.33575 10.4787C2.36974 10.3734 2.42744 10.2773 2.5044 10.1978C2.58137 10.1183 2.67554 10.0575 2.77969 10.0201C4.36209 9.45435 5.21424 8.81725 5.70069 7.88575C6.23314 6.8703 6.33204 5.79275 5.97899 4.34375C5.95226 4.23425 5.95153 4.12003 5.97686 4.0102C6.00219 3.90038 6.05287 3.79801 6.12484 3.71128C6.19682 3.62455 6.2881 3.55587 6.39137 3.51073C6.49464 3.4656 6.60705 3.44526 6.71959 3.45135V3.4502Z" fill="#1DACD6"/>
</svg>
