<svg width="38" height="36" viewBox="0 0 38 36" fill="none" xmlns="http://www.w3.org/2000/svg">
<path d="M32.5 18.0005H37.5V11.7506C37.5 11.0506 36.95 10.5006 36.25 10.5006H33.75V6.75055C33.75 6.05055 33.2 5.50055 32.5 5.50055H29.525L27.375 1.20055C27.05 0.575554 26.3 0.325554 25.7 0.625554L22.8 2.07555L22.375 1.20055C22.05 0.575554 21.3 0.325554 20.7 0.625554L10.95 5.50055H3.75C1.675 5.50055 0 7.17555 0 9.25055V31.7505C0 33.8255 1.675 35.5005 3.75 35.5005H36.25C36.95 35.5005 37.5 34.9505 37.5 34.2505V28.0005H32.5C29.75 28.0005 27.5 25.7505 27.5 23.0005C27.5 20.2505 29.75 18.0005 32.5 18.0005ZM31.25 8.00055V8.95055L30.775 8.00055H31.25ZM2.575 9.67555C2.525 9.55055 2.5 9.40055 2.5 9.25055C2.5 8.55055 3.05 8.00055 3.75 8.00055H5.95L2.575 9.67555ZM6.55 10.5006L20.7 3.42555L24.225 10.5006H6.55ZM27.025 10.5006L23.925 4.30055L25.7 3.42555L29.225 10.5006H27.025Z" fill="#1DACD6"/>
</svg>
