<svg width="40" height="40" viewBox="0 0 40 40" fill="none" xmlns="http://www.w3.org/2000/svg">
<path d="M39.3941 5.21075L34.301 10.3047L30.9256 9.1288L29.695 5.6988L34.7889 0.605673C34.5867 0.524501 34.3821 0.451063 34.1752 0.385516C33.1104 0.0454382 31.9767 -0.0673744 30.8647 0.0380944C30.6656 0.0568444 30.4665 0.0834069 30.2689 0.116923C28.9932 0.333798 27.7802 0.849188 26.7351 1.61138C26.3978 1.85966 26.0753 2.13606 25.77 2.44138C23.2949 4.91567 22.7023 8.55888 23.9898 11.5946L11.5948 23.9896C11.5666 24.0178 10.628 23.6486 10.5084 23.6166C10.1026 23.5082 9.6886 23.4305 9.27118 23.384C8.41774 23.289 7.55001 23.3242 6.70735 23.4894C5.0943 23.8058 3.60352 24.6083 2.44149 25.7698C0.00313148 28.2074 -0.608978 31.7803 0.605944 34.7887L5.69907 29.6947L9.12907 30.9253L10.3049 34.3007L5.21102 39.3938C5.41321 39.475 5.61782 39.5484 5.8247 39.614C6.63477 39.8707 7.4861 39.9997 8.33571 39.9997C10.0852 39.9997 11.8465 39.4322 13.2649 38.3881C13.6022 38.1398 13.9246 37.8634 14.2299 37.5581C16.705 35.0838 17.2977 31.4406 16.0102 28.4049L28.4052 16.0098C29.4445 16.4502 30.5548 16.6711 31.665 16.6711C33.4287 16.6711 35.1727 16.1054 36.5934 15.0596C36.9307 14.8113 37.2531 14.5349 37.5585 14.2296C39.9968 11.792 40.609 8.21911 39.3941 5.21075Z" fill="#1DACD6"/>
</svg>
