<svg width="23" height="23" viewBox="0 0 23 23" fill="none" xmlns="http://www.w3.org/2000/svg">
<g clip-path="url(#clip0_318_406)">
<path d="M19.0349 14.5484L8.45134 4.01373C8.26557 3.82795 7.96206 3.82795 7.77535 4.01467L5.88613 5.90388C5.69942 6.0906 5.69942 6.39415 5.88613 6.58086L6.50468 7.2004L3.52582 10.1793C1.60025 12.1048 1.50447 15.1507 3.19067 17.2171L0.140038 20.2677C-0.0466794 20.4544 -0.0466794 20.758 0.140038 20.9447L2.0551 22.8597C2.14896 22.9536 2.27149 22.9996 2.39407 22.9996C2.51665 22.9996 2.63918 22.9526 2.73303 22.8597L5.78371 19.8091C6.74889 20.5962 7.91709 21.0146 9.09772 21.0146C10.4459 21.0146 11.7951 20.5014 12.8215 19.4749L15.8004 16.496L16.4189 17.1146C16.6037 17.2994 16.9044 17.3013 17.0911 17.1194L19.031 15.2302C19.123 15.1402 19.1747 15.0176 19.1756 14.8903C19.1766 14.7629 19.1249 14.6384 19.0349 14.5484Z" fill="#1DACD6"/>
<path d="M16.7139 0.535494C16.0015 -0.177847 14.84 -0.177847 14.1276 0.535494L10.2305 4.43264L12.8282 7.0189L16.7186 3.1275C17.0643 2.78185 17.2549 2.32318 17.2549 1.8339C17.2549 1.34462 17.0643 0.885949 16.7139 0.535494Z" fill="#1DACD6"/>
<path d="M22.4583 6.2811C21.7459 5.56776 20.5844 5.56776 19.872 6.2811L15.9883 10.1648L18.587 12.7511L22.4641 8.87405C22.8097 8.5284 23.0003 8.06973 23.0003 7.58045C23.0003 7.09117 22.8097 6.63155 22.4583 6.2811Z" fill="#1DACD6"/>
</g>
<defs>
<clipPath id="clip0_318_406">
<rect width="23" height="23" fill="white"/>
</clipPath>
</defs>
</svg>
