<svg width="41" height="41" viewBox="0 0 41 41" fill="none" xmlns="http://www.w3.org/2000/svg">
<circle cx="20.7778" cy="20.5" r="20" fill="#58DC4C"/>
<g clip-path="url(#clip0_318_646)">
<path d="M24.8492 22.2652C24.6264 22.1524 23.5414 21.623 23.3386 21.5474C23.1358 21.4752 22.9886 21.4374 22.8408 21.6602C22.6964 21.8774 22.2708 22.3747 22.1408 22.5197C22.0108 22.6647 21.883 22.6758 21.6636 22.5774C21.4408 22.4647 20.7292 22.233 19.8842 21.4752C19.2242 20.888 18.7847 20.1647 18.6542 19.9419C18.5242 19.7219 18.6397 19.5974 18.7497 19.4874C18.8508 19.3863 18.9725 19.233 19.0853 19.0997C19.1925 18.9663 19.2269 18.8769 19.3053 18.7324C19.3775 18.5763 19.3403 18.4547 19.2853 18.3447C19.2303 18.2347 18.7875 17.1441 18.6025 16.7097C18.4258 16.2786 18.2408 16.3336 18.1047 16.3336C17.9775 16.3219 17.8297 16.3219 17.6825 16.3219C17.5353 16.3219 17.2947 16.3769 17.0919 16.588C16.8892 16.8108 16.3164 17.343 16.3164 18.4197C16.3164 19.4991 17.1092 20.5436 17.2192 20.6997C17.3319 20.8441 18.7786 23.0663 20.998 24.0213C21.5275 24.2441 21.9386 24.3774 22.2597 24.4874C22.7892 24.6552 23.2725 24.6319 23.6542 24.5769C24.0764 24.5074 24.9619 24.0413 25.1475 23.5208C25.3358 22.9969 25.3358 22.563 25.2808 22.4647C25.2258 22.3636 25.0814 22.3086 24.8586 22.2102L24.8492 22.2652ZM20.8242 27.7224H20.8125C19.4986 27.7224 18.1997 27.3663 17.0653 26.7008L16.7992 26.5419L14.0214 27.2652L14.768 24.5624L14.5886 24.2847C13.855 23.1182 13.4658 21.7682 13.4658 20.3902C13.4658 16.3569 16.7675 13.0669 20.8297 13.0669C22.7975 13.0669 24.6436 13.8336 26.0325 15.2224C26.7176 15.8994 27.2611 16.7061 27.6312 17.5954C28.0013 18.4846 28.1906 19.4387 28.188 20.4019C28.1825 24.4324 24.8836 27.7224 20.8269 27.7224H20.8242ZM27.0886 14.1663C25.3986 12.5341 23.1764 11.6113 20.8125 11.6113C15.9369 11.6113 11.9669 15.5641 11.9642 20.4219C11.9642 21.973 12.3692 23.4863 13.1447 24.8258L11.8892 29.3891L16.5825 28.1652C17.8827 28.8662 19.336 29.2349 20.813 29.2386H20.8158C25.6942 29.2386 29.6642 25.2858 29.6669 20.4247C29.6669 18.0724 28.7497 15.8586 27.0775 14.1947L27.0886 14.1663Z" fill="white"/>
</g>
<defs>
<clipPath id="clip0_318_646">
<rect width="17.7778" height="17.7778" fill="white" transform="translate(11.8892 11.6113)"/>
</clipPath>
</defs>
</svg>
